<?xml version="1.0" encoding="utf-8"?>
<!-- Generator: Adobe Illustrator 25.3.1, SVG Export Plug-In . SVG Version: 6.00 Build 0)  -->
<svg version="1.1" id="Camada_1" xmlns="http://www.w3.org/2000/svg" xmlns:xlink="http://www.w3.org/1999/xlink" x="0px" y="0px"
	 viewBox="0 0 1080 1080" style="enable-background:new 0 0 1080 1080;" xml:space="preserve">
<style type="text/css">
	.st0{fill:#222856;}
	.st1{opacity:2.000000e-02;clip-path:url(#SVGID_4_);fill:#FFFFFF;}
	.st2{fill:#FFFFFF;}
	.st3{opacity:0.1;}
	.st4{fill:#05CDDD;}
	.st5{fill:#6528A1;}
	.st6{opacity:0.1;fill:#FFFFFF;}
	.st7{opacity:2.000000e-02;clip-path:url(#SVGID_6_);fill:#FFFFFF;}
</style>
<g>
	<g>
		<g>
			<path class="st0" d="M332.6,581.4c0-6.1,4.6-10.5,10.9-10.5c3.2,0,5.9,1.1,7.8,3.2l-1.9,1.9c-1.6-1.7-3.5-2.4-5.8-2.4
				c-4.6,0-8.1,3.4-8.1,7.9c0,4.6,3.4,7.9,8.1,7.9c2.3,0,4.2-0.8,5.8-2.5l1.9,1.9c-1.9,2.1-4.6,3.2-7.8,3.2
				C337.2,592,332.6,587.5,332.6,581.4z"/>
			<path class="st0" d="M382.8,586.6h-10.9l-2.3,5.1h-3l9.3-20.6h2.9l9.3,20.6h-3.1L382.8,586.6z M381.8,584.2l-4.4-10.1l-4.4,10.1
				H381.8z"/>
			<path class="st0" d="M419.6,591.7l-4.4-6.3c-0.4,0-0.9,0.1-1.3,0.1h-5.1v6.3h-2.9v-20.6h8c5.3,0,8.6,2.7,8.6,7.2
				c0,3.2-1.6,5.5-4.5,6.5l4.9,6.9H419.6z M419.6,578.3c0-2.9-2-4.6-5.7-4.6h-5v9.3h5C417.6,583,419.6,581.3,419.6,578.3z"/>
			<path class="st0" d="M442,571.1h8.7c6.6,0,11.1,4.2,11.1,10.3c0,6.1-4.5,10.3-11.1,10.3H442V571.1z M450.5,589.2
				c5.1,0,8.3-3.1,8.3-7.7c0-4.6-3.3-7.7-8.3-7.7h-5.6v15.5H450.5z"/>
			<path class="st0" d="M480.9,571.1h2.9v20.6h-2.9V571.1z"/>
			<path class="st0" d="M503,581.4c0-6,4.6-10.5,11-10.5c6.3,0,10.9,4.5,10.9,10.5c0,6.1-4.6,10.5-10.9,10.5
				C507.7,592,503,587.5,503,581.4z M522,581.4c0-4.6-3.4-7.9-8-7.9c-4.6,0-8,3.4-8,7.9c0,4.6,3.4,7.9,8,7.9
				C518.6,589.3,522,586,522,581.4z"/>
			<path class="st0" d="M544.1,571.1h2.9v18h11.1v2.6h-14.1V571.1z"/>
			<path class="st0" d="M574.2,581.4c0-6,4.6-10.5,11-10.5c6.3,0,10.9,4.5,10.9,10.5c0,6.1-4.6,10.5-10.9,10.5
				C578.8,592,574.2,587.5,574.2,581.4z M593.1,581.4c0-4.6-3.4-7.9-8-7.9c-4.6,0-8,3.4-8,7.9c0,4.6,3.4,7.9,8,7.9
				C589.7,589.3,593.1,586,593.1,581.4z"/>
			<path class="st0" d="M629.5,581.3h2.8v8c-2.1,1.7-4.9,2.6-7.8,2.6c-6.3,0-11-4.4-11-10.5s4.6-10.5,11-10.5c3.3,0,6,1.1,7.9,3.2
				l-1.8,1.8c-1.7-1.6-3.6-2.4-6-2.4c-4.8,0-8.2,3.3-8.2,7.9c0,4.5,3.4,7.9,8.2,7.9c1.7,0,3.4-0.4,4.8-1.3V581.3z"/>
			<path class="st0" d="M652.6,571.1h2.9v20.6h-2.9V571.1z"/>
			<path class="st0" d="M689.5,586.6h-10.9l-2.3,5.1h-3l9.3-20.6h2.9l9.3,20.6h-3.1L689.5,586.6z M688.5,584.2l-4.4-10.1l-4.4,10.1
				H688.5z"/>
		</g>
		<g>
			<path class="st0" d="M215,611.9h2.9v20.6H215V611.9z"/>
			<path class="st0" d="M256.5,611.9v20.6h-2.4l-12.3-15.3v15.3h-2.9v-20.6h2.4l12.3,15.3v-15.3H256.5z"/>
			<path class="st0" d="M277.3,611.9h8.7c6.6,0,11.1,4.2,11.1,10.3c0,6.1-4.5,10.3-11.1,10.3h-8.7V611.9z M285.8,629.9
				c5.1,0,8.3-3.1,8.3-7.7c0-4.6-3.3-7.7-8.3-7.7h-5.6v15.5H285.8z"/>
			<path class="st0" d="M316.3,611.9h2.9v20.6h-2.9V611.9z"/>
			<path class="st0" d="M357.8,611.9l-9,20.6h-2.9l-9.1-20.6h3.2l7.4,16.9l7.5-16.9H357.8z"/>
			<path class="st0" d="M375.1,611.9h2.9v20.6h-2.9V611.9z"/>
			<path class="st0" d="M398.9,611.9h8.7c6.6,0,11.1,4.2,11.1,10.3c0,6.1-4.5,10.3-11.1,10.3h-8.7V611.9z M407.4,629.9
				c5.1,0,8.3-3.1,8.3-7.7c0-4.6-3.3-7.7-8.3-7.7h-5.6v15.5H407.4z"/>
			<path class="st0" d="M437.7,623.6v-11.7h2.9v11.6c0,4.6,2.1,6.6,5.8,6.6c3.7,0,5.8-2.1,5.8-6.6v-11.6h2.9v11.7
				c0,6-3.3,9.1-8.7,9.1C441,632.7,437.7,629.6,437.7,623.6z"/>
			<path class="st0" d="M488.5,627.3h-10.9l-2.3,5.1h-3l9.3-20.6h2.9l9.3,20.6h-3.1L488.5,627.3z M487.4,625l-4.4-10.1l-4.4,10.1
				H487.4z"/>
			<path class="st0" d="M511.5,611.9h2.9v18h11.1v2.6h-14.1V611.9z"/>
			<path class="st0" d="M543.7,611.9h2.9v20.6h-2.9V611.9z"/>
			<path class="st0" d="M582.9,629.9v2.6h-17.2v-2l12.9-16h-12.7v-2.6h16.6v2l-12.9,16H582.9z"/>
			<path class="st0" d="M614.6,627.3h-10.9l-2.3,5.1h-3l9.3-20.6h2.9l9.3,20.6h-3.1L614.6,627.3z M613.6,625l-4.4-10.1l-4.4,10.1
				H613.6z"/>
			<path class="st0" d="M637.7,611.9h8.7c6.6,0,11.1,4.2,11.1,10.3c0,6.1-4.5,10.3-11.1,10.3h-8.7V611.9z M646.2,629.9
				c5.1,0,8.3-3.1,8.3-7.7c0-4.6-3.3-7.7-8.3-7.7h-5.6v15.5H646.2z"/>
			<path class="st0" d="M689.5,627.3h-10.9l-2.3,5.1h-3l9.3-20.6h2.9l9.3,20.6h-3.1L689.5,627.3z M688.4,625l-4.4-10.1l-4.4,10.1
				H688.4z"/>
		</g>
	</g>
	<path class="st0" d="M804.3,382.3h-6.1h-60.7V449h0.1c0.5,10.5,3.5,20.3,8.5,28.8c-5.4,9.4-8.6,20.2-8.6,31.8l0,0c0,0,0,0,0,0
		s0,0,0,0v3h0.1c0.5,9.8,3.2,19.1,7.6,27.3c-4.5,8.2-7.2,17.5-7.6,27.3h-0.1v3c0,0,0,0,0,0c0,0,0,0,0,0l0,0
		c0,11.6,3.1,22.5,8.6,31.8c-5,8.6-8,18.4-8.5,28.8h-0.1v66.7h60.7h6.1H865v-60.7V631v-60.7h0c0,0,0,0,0,0v-3h-0.1
		c-0.5-9.8-3.2-19.1-7.6-27.3c4.5-8.2,7.2-17.5,7.6-27.3h0.1v-3c0,0,0,0,0,0h0V449v-6.1v-60.7H804.3z M798.3,627.9
		c-18.8-1-35.2-11-45-25.7c9.8-14.7,26.2-24.7,45-25.7V627.9z M798.3,691.6c-29.4-1.5-53-25.1-54.5-54.5h54.5V691.6z M804.3,627.9
		v-51.5h54.3C855.7,604.3,832.7,626.4,804.3,627.9z M858.9,597.4V631h-38.2C837.6,625.6,851.4,613.3,858.9,597.4z M801.3,567.3
		c-20.7,0-38.8-10.9-49-27.3c10.2-16.4,28.3-27.3,49-27.3c20.7,0,38.8,10.9,49,27.3C840.1,556.4,822,567.3,801.3,567.3z
		 M798.3,442.9h-54.5c1.5-29.4,25.1-53,54.5-54.5V442.9z M798.3,503.5c-18.8-1-35.2-11-45-25.7c9.8-14.7,26.2-24.7,45-25.7V503.5z
		 M804.3,452.1c28.3,1.5,51.3,23.5,54.3,51.5h-54.3V452.1z M774.2,388.3c-13.4,6.3-24.2,17.2-30.5,30.5v-30.5H774.2z M743.8,449
		h38.1c-12.9,4.1-24.1,12.3-32,23C746.4,465.1,744.2,457.3,743.8,449z M743.8,512.7L743.8,512.7l0-6.1c0.4-8.3,2.6-16.1,6.2-23.1
		c9,12.3,22.3,21.2,37.6,24.6c-15.8,3.5-29.5,12.9-38.5,25.8C746,527.4,744.1,520.3,743.8,512.7z M743.8,573.4l0-6.1h0
		c0.4-7.6,2.3-14.7,5.3-21.3c9,12.9,22.6,22.3,38.5,25.8c-15.3,3.4-28.6,12.3-37.6,24.6C746.4,589.4,744.2,581.6,743.8,573.4z
		 M749.9,607.9c7.9,10.7,19,18.9,32,23h-38.1C744.2,622.7,746.4,614.9,749.9,607.9z M743.7,661.1c6.3,13.4,17.2,24.2,30.5,30.5
		h-30.5V661.1z M858.9,691.7h-54.6v-54.6h54.6V691.7z M858.9,567.3l0,3h-38.1c13.4-4.3,24.9-13,32.8-24.3
		C856.6,552.6,858.5,559.7,858.9,567.3z M820.7,509.7h38.1l0,3c-0.4,7.6-2.3,14.7-5.3,21.3C845.6,522.6,834.1,514,820.7,509.7z
		 M858.9,482.6c-7.5-15.9-21.3-28.1-38.2-33.6h38.2V482.6z M804.3,442.9v-54.6h54.6v54.6H804.3z"/>
	<polygon class="st0" points="414.4,467.3 446.7,467.3 446.7,539.9 464.5,539.9 464.5,467.3 496.8,467.3 496.8,451.6 414.4,451.6 	
		"/>
	<polygon class="st0" points="525.7,499.7 576,499.7 576,484.9 525.7,484.9 525.7,467.3 582.5,467.3 582.5,451.6 508,451.6 
		508,539.9 583.7,539.9 583.7,524.3 525.7,524.3 	"/>
	<polygon class="st0" points="645.3,483.8 613.5,451.6 595.7,451.6 595.7,539.9 613.5,539.9 613.5,476.4 645.3,507.3 677.1,476.4 
		677.1,539.9 694.9,539.9 694.9,451.6 677.1,451.6 	"/>
	<polygon class="st0" points="276.9,493.9 295.2,493.9 274.9,451.6 256.1,451.6 215,539.9 233.7,539.9 240.5,525 247.3,510.3 
		265.7,470.2 	"/>
	<polygon class="st0" points="289.4,520.2 291.6,525 298.6,539.9 317.3,539.9 307.9,520.2 	"/>
	<path class="st0" d="M404.9,500.2c1.6-2.5,2.8-5.2,3.6-8.2c0.8-3,1.2-6.1,1.2-9.4c0-4.9-0.8-9.2-2.4-13.1c-1.6-3.8-4-7.1-7.3-9.8
		c-3.2-2.7-7.3-4.7-12.3-6.1c-4.9-1.4-10.8-2.1-17.5-2.1h-44.5v42.3h17.8v-26.7h27.2c6.8,0,11.8,1.3,15.2,4c3.4,2.7,5,6.5,5,11.4
		c0,2.5-0.4,4.8-1.3,6.9c-0.8,2.1-2.1,3.8-3.8,5.2c-1.7,1.4-3.8,2.5-6.3,3.3c-2.5,0.8-5.5,1.2-8.8,1.2h-18.5h-26.5v0h-46.4h-9.8H261
		l5.2,11l1.9,4.1h18.5v0h74.2v0h9.6v0.4h0.5l16.5,25.1h21.7l-19-28.3c3.3-1.3,6.2-2.9,8.7-4.8C401.2,504.9,403.2,502.7,404.9,500.2z
		"/>
	<rect x="325.7" y="520.2" class="st0" width="17.8" height="19.7"/>
</g>
</svg>
